<svg width="232" height="258" viewBox="0 0 232 258" fill="none" xmlns="http://www.w3.org/2000/svg">
<g clip-path="url(#clip0_19_229)">
<path d="M105.599 79.5422L115.842 83.0257V67.7819H106.547L105.599 79.5422Z" fill="#F3A3A6"/>
<path d="M114.575 72.0005C120.213 72.0005 124.784 67.2757 124.784 61.4474C124.784 55.6191 120.213 50.8943 114.575 50.8943C108.937 50.8943 104.367 55.6191 104.367 61.4474C104.367 67.2757 108.937 72.0005 114.575 72.0005Z" fill="#F3A3A6"/>
<path d="M111.977 62.276L113.382 64.04L115.928 59.4339C115.928 59.4339 119.178 59.6076 119.178 57.113C119.178 54.6184 122.16 54.5516 122.16 54.5516C122.16 54.5516 126.378 46.9342 117.639 48.9432C117.639 48.9432 111.576 44.6489 108.564 48.3196C108.564 48.3196 99.3204 53.1306 101.966 61.5098L106.362 70.1473L107.357 68.1917C107.357 68.1917 106.754 59.9863 111.981 62.2715L111.977 62.276Z" fill="#2F2E43"/>
<path d="M120.798 248.694H129.822V235.459H120.798V248.694Z" fill="#F3A3A6"/>
<path d="M128.822 256.276C127.279 256.418 119.557 257.051 119.169 255.22C118.816 253.541 119.337 251.786 119.41 251.545C120.152 243.91 120.427 243.825 120.595 243.776C120.858 243.696 121.625 244.075 122.871 244.903L122.948 244.957L122.965 245.05C122.987 245.17 123.539 247.972 126.154 247.54C127.947 247.246 128.529 246.836 128.714 246.636C128.563 246.565 128.374 246.44 128.24 246.226C128.046 245.914 128.012 245.513 128.141 245.032C128.477 243.763 129.485 241.887 129.529 241.812L129.645 241.598L139.901 248.752L146.236 250.623C146.714 250.765 147.097 251.117 147.291 251.59C147.559 252.249 147.395 253.015 146.878 253.496C145.727 254.565 143.443 256.396 141.043 256.623C140.405 256.686 139.561 256.708 138.613 256.708C134.652 256.708 128.869 256.285 128.826 256.276H128.822Z" fill="#2F2E43"/>
<path d="M84.2223 228.883L91.3813 234.561L99.1752 224.061L92.0162 218.383L84.2223 228.883Z" fill="#F3A3A6"/>
<path d="M86.1168 239.945C84.8068 239.09 78.3083 234.729 79.0797 233.036C79.7864 231.481 81.2344 230.412 81.4369 230.274C86.5218 224.683 86.789 224.79 86.9528 224.853C87.2113 224.955 87.5949 225.735 88.0947 227.178L88.1249 227.267L88.0818 227.352C88.0301 227.459 86.8192 230.034 89.1419 231.334C90.7363 232.23 91.4387 232.27 91.7059 232.23C91.6284 232.078 91.5508 231.86 91.5723 231.606C91.6025 231.236 91.8093 230.898 92.1972 230.595C93.2099 229.802 95.1146 228.947 95.1964 228.911L95.4119 228.813L99.3377 240.943L103.263 246.413C103.561 246.828 103.656 247.349 103.531 247.848C103.354 248.543 102.772 249.046 102.078 249.099C100.536 249.224 97.6441 249.238 95.6101 247.91C95.0715 247.558 94.3863 247.046 93.6322 246.449C90.4907 243.954 86.1513 239.981 86.1211 239.95L86.1168 239.945Z" fill="#2F2E43"/>
<path d="M135.398 140.393L101.329 143.988C101.329 143.988 96.4634 160.519 103.414 168.426L107.586 190.708L88.8144 217.302L100.635 225.209L117.32 206.522V238.145L133.312 236.707L140.961 187.113L135.398 140.393Z" fill="#2F2E43"/>
<path d="M120.1 77.1411C120.1 77.1411 117.32 72.1118 105.5 72.829L102.72 79.2972C102.72 79.2972 94.3777 81.4532 94.3777 94.3895C94.3777 107.326 98.5491 146.139 98.5491 146.139L139.224 143.622L120.41 82.8297L120.104 77.1367L120.1 77.1411Z" fill="white"/>
<path d="M157.073 123.033C159.732 124.298 161.219 126.784 160.396 128.588C159.573 130.392 156.746 130.829 154.087 129.568C153.018 129.078 152.083 128.325 151.364 127.363L140.164 121.857L142.922 116.306L153.673 122.325C154.854 122.271 156.026 122.512 157.082 123.033H157.073Z" fill="#F3A3A6"/>
<path d="M150.136 127.091L123.099 117.963L123.069 117.932L102.475 98.2339C99.3204 95.2181 98.8464 90.2333 101.376 86.6384C102.923 84.4378 105.319 83.1237 107.948 83.0302C110.576 82.9366 113.054 84.0815 114.743 86.1662L130.209 105.259L152.484 120.218L150.136 127.091Z" fill="white"/>
</g>
<defs>
<clipPath id="clip0_19_229">
<rect width="231.684" height="257.234" fill="white"/>
</clipPath>
</defs>
</svg>
