<svg width="322" height="445" viewBox="0 0 322 445" fill="none" xmlns="http://www.w3.org/2000/svg">
<path d="M266.565 33.2316C289.568 55.9564 299.116 91.826 303.022 124.576C306.928 157.55 305.409 187.404 300.418 220.377C295.427 253.35 286.964 288.997 265.046 310.162C243.128 331.328 207.322 337.789 175.205 332.664C143.088 327.54 114.443 310.831 81.0233 293.676C47.3871 276.298 8.75979 258.475 1.38153 231.071C-5.99673 203.668 17.8741 166.907 32.8476 129.701C48.0382 92.2716 54.3314 54.3969 76.0322 31.2265C97.5159 8.05611 134.624 -0.632801 171.081 0.0355758C207.539 0.703953 243.779 10.5068 266.565 33.2316Z" fill="#0F62FE"/>
<path d="M235.989 112.019C232.429 116.43 227.445 132.469 235.989 132.469C244.533 132.469 239.549 116.43 235.989 112.019Z" fill="#C8D9F9"/>
<path d="M262.197 102.333C258.637 106.743 253.654 122.782 262.197 122.782C270.741 122.782 265.757 106.743 262.197 102.333Z" fill="#C8D9F9"/>
<path d="M285.261 112.019C281.701 116.43 276.717 132.469 285.261 132.469C293.805 132.469 288.821 116.43 285.261 112.019Z" fill="#C8D9F9"/>
<path d="M241.231 170.139C237.671 174.55 232.687 190.589 241.231 190.589C249.775 190.589 244.791 174.55 241.231 170.139Z" fill="#C8D9F9"/>
<path d="M272.681 192.741C269.121 197.152 264.137 213.191 272.681 213.191C281.225 213.191 276.241 197.152 272.681 192.741Z" fill="#C8D9F9"/>
<path d="M289.454 150.766C285.894 155.177 280.911 171.215 289.454 171.215C297.998 171.215 293.014 155.177 289.454 150.766Z" fill="#C8D9F9"/>
<path d="M263.246 144.308C259.686 148.719 254.702 164.758 263.246 164.758C271.79 164.758 266.806 148.719 263.246 144.308Z" fill="#C8D9F9"/>
<path d="M81.8819 116.325C78.3219 120.735 73.338 136.774 81.8819 136.774C90.4259 136.774 85.4419 120.735 81.8819 116.325Z" fill="#C8D9F9"/>
<path d="M104.946 82.9595C101.386 87.3702 96.4016 103.409 104.946 103.409C113.49 103.409 108.506 87.3702 104.946 82.9595Z" fill="#C8D9F9"/>
<path d="M119.622 34.5264C116.062 38.9371 111.078 54.976 119.622 54.976C128.166 54.976 123.182 38.9371 119.622 34.5264Z" fill="#C8D9F9"/>
<path d="M142.686 72.1966C139.126 76.6073 134.142 92.6462 142.686 92.6462C151.23 92.6462 146.246 76.6073 142.686 72.1966Z" fill="#C8D9F9"/>
<path d="M174.136 52.8234C170.576 57.234 165.592 73.2729 174.136 73.2729C182.68 73.2729 177.696 57.234 174.136 52.8234Z" fill="#C8D9F9"/>
<path d="M207.683 77.578C204.123 81.9887 199.14 98.0276 207.683 98.0276C216.227 98.0276 211.243 81.9887 207.683 77.578Z" fill="#C8D9F9"/>
<path d="M220.264 28.0687C216.704 32.4793 211.72 48.5182 220.264 48.5182C228.808 48.5182 223.824 32.4793 220.264 28.0687Z" fill="#C8D9F9"/>
<path d="M175.185 18.382C171.625 22.7927 166.641 38.8316 175.185 38.8316C183.729 38.8316 178.745 22.7927 175.185 18.382Z" fill="#C8D9F9"/>
<path d="M81.8819 62.51C78.3219 66.9207 73.338 82.9595 81.8819 82.9595C90.4259 82.9595 85.4419 66.9207 81.8819 62.51Z" fill="#C8D9F9"/>
<path d="M81.8819 228.259C78.3219 232.67 73.338 248.708 81.8819 248.708C90.4259 248.708 85.4419 232.67 81.8819 228.259Z" fill="#C8D9F9"/>
<path d="M59.8667 150.766C56.3067 155.177 51.3227 171.215 59.8667 171.215C68.4106 171.215 63.4266 155.177 59.8667 150.766Z" fill="#C8D9F9"/>
<path d="M69.3018 195.97C65.7418 200.381 60.7578 216.42 69.3018 216.42C77.8457 216.42 72.8618 200.381 69.3018 195.97Z" fill="#C8D9F9"/>
<path d="M59.8667 107.714C56.3067 112.125 51.3227 128.164 59.8667 128.164C68.4106 128.164 63.4266 112.125 59.8667 107.714Z" fill="#C8D9F9"/>
<path d="M36.8031 189.512C33.2431 193.923 28.2591 209.962 36.8031 209.962C45.347 209.962 40.363 193.923 36.8031 189.512Z" fill="#C8D9F9"/>
<path d="M239.134 62.51C235.574 66.9207 230.59 82.9595 239.134 82.9595C247.678 82.9595 242.694 66.9207 239.134 62.51Z" fill="#C8D9F9"/>
<path d="M272.681 68.9677C269.121 73.3784 264.137 89.4173 272.681 89.4173C281.225 89.4173 276.241 73.3784 272.681 68.9677Z" fill="#C8D9F9"/>
<g clip-path="url(#clip0_74_151)">
<path d="M129.168 112.01L127.248 113.195L228.607 287.283L230.527 286.099L129.168 112.01Z" fill="#000019"/>
<path d="M157.689 214.858L170.991 219.362V199.654H158.92L157.689 214.858Z" fill="#F3A3A6"/>
<path d="M169.346 205.108C176.668 205.108 182.604 198.999 182.604 191.464C182.604 183.929 176.668 177.82 169.346 177.82C162.024 177.82 156.089 183.929 156.089 191.464C156.089 198.999 162.024 205.108 169.346 205.108Z" fill="#F3A3A6"/>
<path d="M165.972 192.535L167.796 194.816L171.103 188.861C171.103 188.861 175.323 189.085 175.323 185.86C175.323 182.635 179.195 182.548 179.195 182.548C179.195 182.548 184.674 172.7 173.325 175.297C173.325 175.297 165.451 169.745 161.539 174.491C161.539 174.491 149.535 180.711 152.972 191.545L158.68 202.712L159.972 200.184C159.972 200.184 159.189 189.575 165.977 192.529L165.972 192.535Z" fill="#2F2E43"/>
<path d="M177.427 433.553H189.146V416.442H177.427V433.553Z" fill="#F3A3A6"/>
<path d="M187.847 443.355C185.844 443.539 175.815 444.357 175.312 441.99C174.853 439.819 175.53 437.55 175.625 437.239C176.588 427.367 176.946 427.258 177.164 427.194C177.505 427.091 178.501 427.58 180.119 428.651L180.22 428.721L180.242 428.841C180.27 428.997 180.986 432.62 184.383 432.061C186.711 431.681 187.467 431.151 187.707 430.892C187.511 430.8 187.265 430.638 187.092 430.362C186.84 429.959 186.795 429.44 186.963 428.818C187.399 427.177 188.709 424.752 188.765 424.654L188.916 424.378L202.235 433.627L210.462 436.046C211.083 436.231 211.581 436.686 211.833 437.296C212.18 438.149 211.967 439.139 211.295 439.761C209.801 441.143 206.835 443.511 203.718 443.804C202.89 443.885 201.793 443.914 200.562 443.914C195.419 443.914 187.909 443.367 187.853 443.355H187.847Z" fill="#2F2E43"/>
<path d="M129.928 407.939L139.225 415.28L149.347 401.705L140.05 394.364L129.928 407.939Z" fill="#F3A3A6"/>
<path d="M132.389 422.241C130.687 421.135 122.248 415.497 123.25 413.309C124.168 411.298 126.048 409.916 126.311 409.738C132.915 402.51 133.262 402.648 133.474 402.729C133.81 402.861 134.308 403.869 134.957 405.735L134.996 405.85L134.94 405.96C134.873 406.098 133.301 409.427 136.317 411.108C138.388 412.266 139.3 412.318 139.647 412.266C139.546 412.07 139.445 411.788 139.473 411.46C139.513 410.982 139.781 410.544 140.285 410.152C141.6 409.127 144.074 408.021 144.18 407.975L144.46 407.849L149.558 423.531L154.656 430.604C155.042 431.139 155.165 431.813 155.003 432.458C154.774 433.357 154.018 434.008 153.117 434.077C151.114 434.238 147.359 434.255 144.717 432.539C144.018 432.084 143.128 431.422 142.148 430.65C138.069 427.425 132.433 422.287 132.394 422.247L132.389 422.241Z" fill="#2F2E43"/>
<path d="M196.387 293.531L152.143 298.179C152.143 298.179 145.825 319.552 154.852 329.775L160.269 358.583L135.892 392.966L151.242 403.189L172.911 379.029V419.914L193.678 418.054L203.612 353.935L196.387 293.531Z" fill="#2F2E43"/>
<path d="M176.52 211.754C176.52 211.754 172.911 205.252 157.56 206.179L153.951 214.542C153.951 214.542 143.117 217.329 143.117 234.054C143.117 250.779 148.534 300.961 148.534 300.961L201.356 297.707L176.923 219.109L176.526 211.748L176.52 211.754Z" fill="white"/>
<path d="M122.981 139.342C121.112 152.07 121.968 165.195 125.41 177.561L183.51 146.074C182.497 144.836 181.462 143.621 180.382 142.446C171.669 132.983 160.817 125.658 148.909 121.24C144.532 123.175 139.988 125.49 135.282 128.261C131.029 130.76 127.134 133.3 123.563 135.857C123.345 137.015 123.149 138.173 122.981 139.336V139.342Z" fill="#FFE072"/>
<path d="M155.921 122.329C162.636 125.496 168.915 129.608 174.584 134.481C178.378 137.741 181.87 141.358 185.027 145.262L223.417 124.46C223.417 124.46 196.751 101.249 151.158 120.284C152.764 120.918 154.354 121.597 155.915 122.334L155.921 122.329Z" fill="#FFE072"/>
<path d="M122.59 173.241C119.976 161.463 119.652 149.173 121.621 137.28C80.8922 167.505 84.776 199.585 84.776 199.585L123.899 178.384C123.418 176.685 122.97 174.975 122.584 173.247L122.59 173.241Z" fill="#FFE072"/>
<path d="M224.536 271.087C227.989 272.723 229.92 275.936 228.851 278.269C227.782 280.601 224.111 281.166 220.658 279.536C219.27 278.902 218.056 277.929 217.121 276.685L202.576 269.567L206.158 262.39L220.121 270.171C221.654 270.102 223.176 270.413 224.547 271.087H224.536Z" fill="#F3A3A6"/>
<path d="M215.526 276.334L180.415 264.533L180.376 264.493L153.632 239.025C149.535 235.126 148.92 228.681 152.205 224.033C154.214 221.188 157.325 219.489 160.739 219.368C164.153 219.247 167.371 220.727 169.564 223.423L189.649 248.107L218.576 267.447L215.526 276.334Z" fill="white"/>
</g>
<defs>
<clipPath id="clip0_74_151">
<rect width="300.875" height="332.574" fill="white" transform="translate(20.5537 112.019)"/>
</clipPath>
</defs>
</svg>
